<svg width="232" height="252" viewBox="0 0 232 252" fill="none" xmlns="http://www.w3.org/2000/svg">
<path d="M27.26 232.83V231.81H20.22L23.66 222.77H22.56L19.08 231.81H11.55L15.03 222.77H13.88L10.44 231.81H3.03V232.83H10.03L7.48999 239.42H0V240.44H7.12L3.59999 249.69H4.75L8.26999 240.44H15.8L12.28 249.69H13.43L16.95 240.44H24.23V239.42H17.36L19.86 232.83H27.27H27.26ZM16.21 239.42H8.67999L11.18 232.83H18.71L16.21 239.42Z" fill="#5C5F57"/>
<path d="M46.5804 242.16L46.2904 242.94C44.4104 247.61 42.0804 249.24 36.6704 249.24H34.7104V223.71L37.3704 222.93V222.77H29.1504V222.93L31.8104 223.71V248.75L29.1504 249.49V249.7H44.4504L44.6504 251.7H44.8504L46.7704 242.17H46.5704L46.5804 242.16Z" fill="#5C5F57"/>
<path d="M65.6802 242.81C64.5302 246.57 62.7702 248.33 59.1702 248.33C54.4202 248.33 51.1502 244.52 51.1502 238.59C51.1502 237.36 51.3102 236.26 51.5602 235.23H64.7802C64.4902 232.12 62.0402 229.91 58.1502 229.91C52.5802 229.91 48.4502 234.29 48.4502 240.67C48.4502 246.52 52.1302 250.24 57.5302 250.24C63.3002 250.24 64.9802 246.52 65.8802 242.84L65.6802 242.8V242.81ZM57.0902 230.45C59.6702 230.45 61.3502 232.05 61.7502 234.75L51.6802 234.87C52.5002 232.13 54.3802 230.45 57.0802 230.45H57.0902Z" fill="#5C5F57"/>
<path d="M77.5503 247.02C76.4903 247.96 75.6303 248.62 74.1903 248.62C72.5503 248.62 71.7303 247.68 71.7303 246.16V231.59H76.8903V230.44H71.7303V226.18H71.5303C70.8303 228.47 68.9103 230.52 66.8203 231.42V231.58H69.0303V246.64C69.0303 248.97 70.5403 250.24 72.7103 250.24C74.3903 250.24 75.6603 249.22 77.7003 247.17L77.5403 247.01L77.5503 247.02Z" fill="#5C5F57"/>
<path d="M86.9196 238.92L85.7296 238.3C82.3696 236.62 81.1496 235.27 81.1496 233.64C81.1496 231.92 82.7496 230.49 85.3596 230.49C88.6696 230.49 90.9696 232.82 91.4996 236.01H91.6996V230.98C90.5496 230.45 88.7496 229.92 86.5396 229.92C81.8796 229.92 78.8096 232.7 78.8096 235.4C78.8096 237.04 79.9596 238.43 84.0096 240.48L85.3196 241.18C89.2496 243.18 90.4796 244.62 90.4796 246.46C90.4796 248.3 89.2496 249.49 86.8796 249.49C83.2396 249.49 80.7396 247.2 79.6796 243.68H79.4796L80.3796 249.24C81.2396 249.69 83.2396 250.26 85.2496 250.26C89.9596 250.26 92.2896 247.48 92.2896 244.9C92.2896 242.53 90.8196 240.85 86.9296 238.93L86.9196 238.92Z" fill="#5C5F57"/>
<path d="M120.84 238.72V238.52H110.9V238.72L115.28 239.46V248.46C114.18 249.07 112.05 249.81 109.76 249.81C102.72 249.81 98.26 244.53 98.26 235.61C98.26 227.38 103.01 222.72 109.06 222.68C113.6 222.64 116.55 225.18 118.23 228.82H118.43L116.67 220.55H116.47L116.31 223.13C115.12 222.84 112.5 222.23 109.64 222.23C101.05 222.23 94.75 228.41 94.75 236.88C94.75 245.35 100.15 250.26 109.73 250.26C113.7 250.26 116.81 249.4 120 248.42V248.21H118.16V239.45L120.86 238.71L120.84 238.72Z" fill="#5C5F57"/>
<path d="M139.01 242.81C137.86 246.57 136.1 248.33 132.5 248.33C127.75 248.33 124.48 244.52 124.48 238.59C124.48 237.36 124.6 236.26 124.89 235.23H138.11C137.82 232.12 135.37 229.91 131.48 229.91C125.91 229.91 121.78 234.29 121.78 240.67C121.78 246.52 125.46 250.24 130.86 250.24C136.59 250.24 138.31 246.52 139.21 242.84L139.01 242.8V242.81ZM130.42 230.45C133 230.45 134.68 232.05 135.08 234.75L125.01 234.87C125.83 232.13 127.71 230.45 130.41 230.45H130.42Z" fill="#5C5F57"/>
<path d="M150.88 247.02C149.82 247.96 148.96 248.62 147.52 248.62C145.88 248.62 145.02 247.68 145.02 246.16V231.59H150.22V230.44H145.02V226.18H144.86C144.16 228.47 142.24 230.52 140.15 231.42V231.58H142.36V246.64C142.36 248.97 143.87 250.24 146.04 250.24C147.72 250.24 148.99 249.22 151.03 247.17L150.87 247.01L150.88 247.02Z" fill="#5C5F57"/>
<path d="M160.17 222.92V222.76H151.99V222.92L154.61 223.7V248.74L151.99 249.48V249.69H160.17V249.48L157.51 248.74V223.7L160.17 222.92Z" fill="#5C5F57"/>
<path d="M172.4 247.02C171.34 247.96 170.44 248.62 169 248.62C167.4 248.62 166.54 247.68 166.54 246.16V231.59H171.74V230.44H166.54V226.18H166.38C165.68 228.47 163.76 230.52 161.67 231.42V231.58H163.88V246.64C163.88 248.97 165.39 250.24 167.52 250.24C169.24 250.24 170.47 249.22 172.51 247.17L172.39 247.01L172.4 247.02Z" fill="#5C5F57"/>
<path d="M188.65 222.19C180.14 222.19 174.04 227.92 174.04 236.51C174.04 245.1 179.97 250.26 188.08 250.26C196.59 250.26 202.65 244.57 202.65 235.94C202.65 227.31 196.76 222.19 188.66 222.19H188.65ZM188.61 249.81C182.31 249.81 177.4 244.49 177.4 235.65C177.4 226.81 182.39 222.64 188.04 222.64C194.38 222.64 199.29 227.92 199.29 236.76C199.29 245.6 194.26 249.81 188.61 249.81Z" fill="#5C5F57"/>
<path d="M222.33 222.76V222.92L222.94 223.04C226.3 223.65 228.18 225.62 228.18 236.34V245.38L210.67 222.75H204.74V222.91L207.36 223.69V248.73L204.74 249.47V249.68H214.6V249.47L214.07 249.39C209.86 248.45 207.81 246.73 207.81 233.31V223.86L228.47 250.5H228.63V223.7L231.29 222.92V222.76H222.33Z" fill="#5C5F57"/>
<path d="M112.96 114.15L117.51 127.73C123.97 147.02 127.74 148.54 134.2 147.82L135.02 147.73L135.11 148L120.93 152.75L120.84 152.48L124.28 150.12L112.24 114.15L108.07 114.34L107.98 114.07L116.51 111.22L152.54 135.29L148.19 122.3C143.04 106.92 139.38 105.01 134.31 105.74L133.33 105.89L133.24 105.62L146.12 101.31L146.21 101.58L142.77 103.94L155.64 142.41L155.42 142.48L112.95 114.16L112.96 114.15Z" fill="#AD8F64"/>
<path d="M118.293 82.9158L86.582 146.519L87.6917 147.072L119.403 83.4691L118.293 82.9158Z" fill="#AD8F64"/>
<path d="M103.91 192.71C98.6099 192.98 92.9699 193.43 87.6699 192.84C95.9699 193.76 104.39 194.55 112.74 194.18C113.04 194.17 113.35 194.15 113.65 194.14C123.84 193.59 133.76 191.16 142.61 186.24C144.72 185.06 146.94 183.72 149.38 183.83C151.56 183.93 153.49 185.17 155.52 185.95C159.09 187.32 163.23 187.22 166.71 185.68C164.91 183.2 161.78 181.88 158.67 181.53C155.57 181.18 152.44 181.69 149.37 182.2C150.24 181.47 159.79 173.13 159.96 173.28C166.29 178.96 176.35 180.33 183.99 176.55C177.27 172.13 168.55 170.68 160.74 172.71C164.16 169.21 167.58 165.71 171 162.21C179.12 165.81 188.27 169.48 196.66 166.66C189.21 162.45 180.45 160.45 171.88 160.99C174.5 157.48 177.12 153.97 179.73 150.46C189.6 155.46 201.73 156.01 211.98 151.94C207.78 148.51 202.15 147.1 196.67 147.02C191.2 146.93 185.8 148.06 180.46 149.18C181.96 146.15 183.45 143.11 184.95 140.08C190.71 140.5 196.65 140.13 201.93 137.92C207.21 135.71 211.77 131.45 213.21 126.06C203.43 128.64 194.05 132.62 185.47 137.81C187.61 135.01 187.38 131.16 188.55 127.86C190.96 121.11 198.62 117.85 205.32 114.85C212.02 111.85 219.33 107.15 219.65 99.99C208.85 104.06 198.93 110.24 190.65 118.06C190.26 117.09 190.06 116.08 190.03 115.07C189.95 117 189.62 118.96 189.2 120.79C187.93 118.91 186.47 117.15 184.85 115.54C185.05 115.77 185.24 116.01 185.42 116.26C186.13 117.25 186.69 118.35 187.26 119.44C185.36 117.65 182.8 116.5 180.39 115.37C175.23 112.94 169.95 110.42 165.36 107.06C160.09 103.2 166.14 105.95 167.84 106.53C171.28 107.69 174.57 109.26 177.8 110.87C179.63 111.78 181.48 112.67 183.07 113.88C177.13 108.69 169.49 105.31 161.54 104.56C167.73 111.22 177.11 113.94 185.04 118.56C186.3 119.29 187.6 120.16 188.15 121.48C188.56 122.47 188.49 123.58 188.35 124.64C187.9 128.19 186.88 131.67 185.33 134.92C186.14 131.22 183.02 127.74 179.66 125.78C176.3 123.82 172.38 122.6 169.67 119.84C170.99 125.37 175.39 129.77 180.17 133.08C181.43 133.95 182.79 134.84 183.46 136.19C185.37 140.06 180.54 143.9 180.02 148.14C178.08 139.81 172.62 132.28 165.17 127.68C165.96 135.15 169.98 142.28 176.05 146.99C177.04 147.76 178.19 148.66 178.18 149.89C178.18 150.56 177.81 151.16 177.44 151.73C175.57 154.63 173.47 157.4 171.16 159.99C171.21 153.1 168.06 146.23 162.75 141.61C162.39 148.77 165.03 156.05 169.94 161.46C166.77 164.79 163.6 168.12 160.43 171.44C162.32 164.98 161.44 157.78 158.03 151.89C154.69 158.35 155.07 166.48 158.99 172.68C155.19 175.76 151.4 178.85 147.6 181.93C150.53 176.12 151.13 169.24 149.24 163C144.95 168.14 143.87 175.62 146.54 181.74C146.58 181.84 140.94 184.22 140.59 184.37C140.29 184.5 139.98 184.63 139.68 184.76C135.11 186.72 130.63 188.98 125.76 190.19C123.97 190.47 122.22 191 120.42 191.23C120.18 191.26 119.94 191.29 119.69 191.32C114.45 191.98 109.17 192.44 103.89 192.71H103.91ZM189.96 122.64C190.02 122.3 190.07 121.96 190.12 121.61C190.37 121.1 190.65 120.61 190.95 120.13C193.52 117.5 198.21 115.72 200.66 114.2C200.84 114.09 200.7 113.83 200.5 113.91C198.39 114.77 194.87 116.29 192.24 118.32C194.92 115.03 198.65 112.68 202.38 110.3C205.37 108.4 208.34 106.47 211.38 104.65C213.56 103.35 221.15 99.23 217.54 104.73C211.41 114.05 198.05 115.61 189.96 122.63V122.64ZM189.08 121.74C189.08 121.74 189.08 121.74 189.09 121.74V121.76C189.09 121.76 189.09 121.75 189.09 121.74H189.08ZM185.73 139.06C189.1 135.76 193.1 134.22 197.65 132.62C202.34 130.97 206.99 129.24 211.56 127.31C210.75 128.58 210.15 129.91 209.44 131.3C207.42 135.2 202.61 136.79 198.62 137.93C196.09 138.65 193.53 139.25 190.9 139.44C189.93 139.51 189.01 139.39 188.09 139.27C191.32 138.82 194.53 138.05 197.18 136.17C197.36 136.04 197.15 135.8 196.97 135.88C193.56 137.36 190.23 138.51 186.6 139.1C186.31 139.08 186.02 139.07 185.73 139.07V139.06ZM170.13 121.1C170.08 121.02 170.04 120.94 170.01 120.86C170.04 120.94 170.09 121.02 170.13 121.1ZM184.44 136.28C183.51 134.65 182.22 133.41 180.5 132.14C178.39 130.58 176.29 129.09 174.47 127.19C173.69 126.31 173.01 125.38 172.42 124.38C171.97 123.67 171.01 122.49 170.42 121.59C171.55 123.15 173.81 124 175.49 124.68C179.79 126.41 183.92 128.68 184.59 132.94C183.54 131.35 181.85 130.09 180.44 128.75C180.28 128.6 180.03 128.81 180.18 128.98C181.07 129.98 182.01 130.93 182.92 131.92C183.75 132.82 184.23 133.8 184.65 134.86C184.61 135.32 184.55 135.8 184.44 136.3V136.28ZM195.2 150.93C193.01 149.6 190.83 149.45 188.29 149.61C186.16 149.74 184.18 149.87 182.17 149.79C190.99 147.61 200.57 146.64 208.93 150.8C212.23 152.45 206.72 152.85 205.36 153.1C202.23 153.67 198.98 153.68 195.8 153.76C191.35 153.87 186.96 153 183.1 150.94C187.01 150.92 191.35 149.13 195.02 151.2C195.21 151.31 195.39 151.04 195.2 150.93ZM178.62 148.53C178.44 148.23 178.26 147.95 178.06 147.67C178.14 147.64 178.2 147.57 178.17 147.47C177.06 144.02 174.18 141.3 171.96 138.49C171.82 138.31 171.5 138.53 171.63 138.71C173.51 141.34 175.41 143.9 177.16 146.61C176.01 145.39 174.62 144.36 173.27 143.25C169.02 139.76 167.48 134.1 166.21 129.08C166.58 130.53 171.52 134.28 173.4 136.13C177.11 139.76 178.93 143.56 178.62 148.53ZM172.3 161.86C179.95 160.91 187.37 163.74 194.46 166.34C186.45 168.07 179.61 164.82 172.3 161.86ZM171.44 161.52C171.44 161.52 171.48 161.47 171.51 161.44C171.51 161.48 171.51 161.51 171.51 161.55C171.49 161.54 171.46 161.53 171.44 161.52ZM170.28 160.69C167.92 157.89 166.24 154.98 165.01 151.47C164.55 150.17 164.27 148.81 163.99 147.47C163.82 146.67 162.84 142.37 164.66 144.28C168.56 148.37 170.12 155.29 170.28 160.69ZM172.21 176.41C168.73 174.84 165 174.63 161.54 173.18C168.57 172.66 175.69 172.93 182.16 176.07C182.35 176.16 177.8 178.2 177.1 178.33C174.57 178.83 171.85 178.21 169.44 177.52C167.3 176.91 165.3 175.91 163.41 174.74C166.24 175.58 169.56 175.62 172.11 176.71C172.31 176.8 172.4 176.49 172.21 176.4V176.41ZM159.41 172.02C159.45 171.98 159.48 171.92 159.53 171.88C159.6 171.94 159.66 172 159.73 172.06C159.69 172.1 159.65 172.13 159.61 172.17C159.54 172.12 159.48 172.07 159.41 172.03V172.02ZM157.96 162.25C158.9 164.8 158.95 167.5 159.49 170.11C159.4 170.3 159.3 170.49 159.2 170.68C156.96 167.79 156.19 164.57 156.32 160.81C156.39 158.9 156.88 157.04 157.43 155.23C157.72 154.29 157.85 151.99 158.29 153.64C159.55 158.43 161.54 163.89 160.05 168.71C159.81 166.42 159.41 164.09 158.38 162.12C158.27 161.91 157.88 162.03 157.97 162.26L157.96 162.25ZM157.42 184.16C155.57 183.48 153.45 183.19 151.45 183.01C156.25 182.65 161.96 181.72 165.28 185.33C161.31 186.52 155.95 185.68 151.88 183.8C153.65 184.18 155.58 184.01 157.31 184.49C157.53 184.55 157.64 184.24 157.42 184.16ZM140.74 186.63C139.8 187.21 138.99 187.67 138.16 188.04C139.03 187.6 139.89 187.13 140.74 186.63ZM146.51 172.87C146.93 174.93 146.78 177.24 147.39 179.27C147.24 179.72 147.1 180.17 146.96 180.62C144.91 175.24 145.68 169.02 148.97 164.26C148.79 164.52 149.68 168.16 149.67 168.77C149.67 170.46 149.34 172.17 149 173.82C148.72 175.19 148.3 176.52 147.86 177.84C147.64 176.14 147.26 174.41 146.9 172.79C146.85 172.54 146.46 172.63 146.51 172.87ZM146.87 182.6C146.76 182.6 146.64 182.62 146.5 182.66C146.55 182.62 146.61 182.57 146.66 182.53C146.72 182.57 146.8 182.6 146.87 182.6Z" fill="#AD8F64"/>
<path d="M190.05 115.07C190.04 114.72 190.05 114.36 190.07 114.01C190.07 114.36 190.07 114.72 190.05 115.07Z" fill="#AD8F64"/>
<path d="M190.07 114.01C190.26 111.22 191.57 108.42 193.3 106.12C195.88 102.7 199.34 99.9699 202.04 96.6299C204.74 93.2899 206.67 88.9199 205.47 84.8199C205.24 84.0299 204.74 83.1499 203.9 83.0599C203.23 82.9899 202.64 83.4399 202.15 83.8899C195.42 89.9499 191.22 98.5699 190.65 107.47C189.99 100.92 187.86 94.4999 184.44 88.7799C185.55 91.5099 186.67 94.2399 187.78 96.9599C181.34 92.9199 177.38 85.4199 177.79 78.0299C184.73 82.2199 189.2 90.0299 189.17 97.9099C190.65 93.7899 189.43 89.0899 186.97 85.3999C184.51 81.7099 180.93 78.8599 177.35 76.1699C176.08 82.4099 178.11 89.2299 182.63 93.8899C184.33 95.6399 186.35 97.0999 187.88 98.9899C189.41 100.88 190.43 103.4 189.67 105.68C185.32 98.0099 175.84 94.7899 167.21 92.2099C166.84 96.1999 171.05 99.1999 175.02 100.4C178.99 101.6 183.45 102.02 186.52 104.75C189.16 107.1 190.06 110.48 190.07 114.01ZM198.93 93.4899C196.71 97.0699 194.24 100.57 192.28 104.3C192.85 99.6199 194.1 95.6899 197.19 91.7199C199.21 89.1199 201.27 86.0899 203.65 83.8199C204.34 83.1599 204.52 88.3799 204.49 88.8699C204.29 91.8099 202.96 94.2799 201.24 96.6499C198.67 100.19 195.12 102.78 192.1 105.89C192.12 105.72 192.13 105.55 192.15 105.38C194.44 101.42 197.73 97.9599 199.26 93.6399C199.33 93.4399 199.03 93.2999 198.92 93.4799L198.93 93.4899ZM189.71 106.53C189.71 106.53 189.73 106.52 189.74 106.51C189.74 106.54 189.74 106.56 189.74 106.59C189.73 106.57 189.72 106.55 189.7 106.53H189.71ZM188.4 104.99C184.91 101.9 177.75 100.55 174.62 99.3299C172.39 98.4599 170.1 97.3099 168.69 95.3499C168.37 94.9099 167.18 92.3199 168.37 92.9999C169.73 93.7699 171.19 94.3699 172.63 94.9599C175.49 96.1199 178.46 96.9599 181.27 98.2699C184.57 99.8099 186.51 102.21 188.4 104.99Z" fill="#AD8F64"/>
<path d="M184.88 115.54C184.31 114.97 183.71 114.41 183.1 113.87C183.74 114.36 184.34 114.91 184.88 115.54Z" fill="#AD8F64"/>
<path d="M177.4 98.2899C179.82 99.1799 182.72 99.7299 184.73 101.4C184.89 101.53 184.7 101.8 184.52 101.72C182.09 100.72 179.69 99.7399 177.24 98.7899C176.91 98.6599 177.07 98.1599 177.41 98.2799L177.4 98.2899Z" fill="#AD8F64"/>
<path d="M167.22 152.99C168.23 155.13 169.42 157.27 170.14 159.52C170.19 159.68 169.95 159.75 169.86 159.62C168.64 157.6 167.83 155.31 166.89 153.16C166.8 152.95 167.12 152.78 167.22 152.99Z" fill="#AD8F64"/>
<path d="M23.9402 126.83C23.8802 126.59 23.8202 126.36 23.7502 126.12C23.2902 124.36 23.1302 122.54 22.7202 120.77C22.0202 115.8 22.4402 110.8 22.5602 105.83C22.5602 105.5 22.5802 105.17 22.5802 104.84C22.5802 104.46 22.6902 98.33 22.8002 98.34C29.4802 98.53 36.0202 94.74 39.1802 88.84C32.6902 89.42 26.5302 92.54 22.2302 97.43C23.6702 92.76 25.1202 88.08 26.5602 83.41C33.7702 84.73 41.4602 82.05 46.2102 76.54C39.4702 75.57 32.4602 77.44 27.1802 81.61C29.0802 77.43 30.9902 73.24 32.8902 69.06C39.7402 71.6 47.4802 71.32 53.9902 68.32C47.7202 65.11 40.1701 64.76 33.8001 67.38C35.3401 64.27 37.1202 61.29 39.1202 58.47C39.5102 57.92 39.9401 57.36 40.5501 57.1C41.6801 56.63 42.9502 57.36 44.0302 57.99C50.6702 61.87 58.7802 62.93 66.0102 60.88C58.9602 55.69 49.9302 53.43 41.4802 54.74C45.2202 52.67 46.9702 46.76 51.2802 47.08C52.7802 47.19 54.1102 48.13 55.3902 48.97C60.2502 52.17 65.9702 54.61 71.6002 53.77C68.0302 52.29 65.4302 49.11 62.3602 46.72C59.2902 44.33 54.8902 42.74 51.7702 44.87C54.2002 42.22 57.0502 39.97 60.1702 38.23C61.1002 37.71 62.1002 37.23 63.1802 37.24C64.6102 37.26 65.9002 38.14 67.0502 39.03C74.2902 44.66 80.3201 52.35 88.8101 55.6C85.1501 48.51 79.1602 42.68 72.1302 39.11C73.8502 40.13 75.3602 41.51 76.8902 42.87C79.5902 45.27 82.2701 47.74 84.6301 50.49C85.8001 51.86 90.6201 56.44 85.0601 52.99C80.2301 49.99 75.9202 46.03 71.7402 42.15C69.7902 40.34 67.7702 38.4 65.4002 37.3C66.6202 37.42 67.8502 37.53 69.0402 37.82C69.3402 37.89 69.6302 37.98 69.9202 38.08C67.8202 37.18 65.6502 36.48 63.4302 36.01C64.9702 34.94 66.6602 33.91 68.4302 33.11C67.4702 33.46 66.4702 33.65 65.4202 33.65C69.5902 23.05 71.6202 11.54 71.3602 0C64.8402 2.97 63.2102 11.51 62.9302 18.84C62.6402 26.18 62.4802 34.49 57.1202 39.25C54.5002 41.57 50.8402 42.79 49.0402 45.82C50.6502 35.92 50.8402 25.74 49.5902 15.7C45.1202 19.05 42.8701 24.87 42.8001 30.6C42.7201 36.33 44.6002 41.97 47.1402 47.16C44.8902 49.68 42.6302 52.2 40.3802 54.72C39.4302 49.35 38.4602 43.92 36.3402 38.87C34.2202 33.82 30.8102 29.12 26.0602 26.51C26.1002 37.53 31.1502 48.58 39.4702 55.87C37.1902 59.61 34.9102 63.35 32.6402 67.09C29.9402 58.93 24.8102 51.56 18.1302 46.21C18.6402 55.05 25.4602 62.17 31.8302 68.36C29.8602 72.84 27.8902 77.32 25.9202 81.8C24.8802 73.8 20.2902 66.25 13.6802 61.67C13.0302 70.17 18.0502 78.98 25.6902 82.74C25.8902 82.84 21.7202 94.82 21.3702 95.89C20.7002 92.85 20.0002 89.76 18.5202 87.02C17.0402 84.27 14.6402 81.86 11.6702 81.12C11.5402 84.92 12.9902 88.79 15.6002 91.6C17.0802 93.2 18.9502 94.52 19.8602 96.51C20.8802 98.74 20.4502 101.29 20.1502 103.69C18.8902 113.74 20.3402 123.85 23.6302 133.51C23.7302 133.8 23.8302 134.09 23.9302 134.37C26.7102 142.25 30.5802 149.77 34.5302 157.13C32.0102 152.43 30.3202 147.04 28.5902 142.02C26.8702 137.02 25.3302 131.95 23.9802 126.84L23.9402 126.83ZM67.7402 3.75C71.4902 -1.65 70.5102 6.93 70.1102 9.44C69.5602 12.94 68.8802 16.41 68.2302 19.89C67.4202 24.23 66.6302 28.57 64.5802 32.29C65.4802 29.09 65.5802 25.27 65.5902 22.98C65.5902 22.76 65.3002 22.73 65.2602 22.94C64.7602 25.79 64.8602 30.8 63.3802 34.16C63.0502 34.61 62.7002 35.05 62.3202 35.48C62.0202 35.66 61.7202 35.83 61.4302 36.01C64.9302 25.89 61.3802 12.91 67.7402 3.73999V3.75ZM62.5802 36.5C62.5802 36.5 62.5902 36.5 62.6002 36.49C62.6002 36.49 62.6002 36.5 62.6002 36.51C62.6002 36.51 62.5902 36.51 62.5802 36.51V36.5ZM47.4202 45.29C46.6102 41.7 46.4302 38.19 46.5302 34.46C46.5302 34.26 46.2302 34.16 46.1802 34.37C45.4302 37.53 45.9102 40.8 46.7002 43.96C46.2402 43.15 45.7902 42.34 45.4902 41.42C44.6802 38.9 44.2802 36.31 44.0102 33.69C43.5802 29.56 43.2602 24.5 46.1202 21.17C47.1402 19.99 48.1602 18.93 49.0302 17.71C48.9502 22.67 49.0802 27.63 49.3002 32.6C49.5102 37.42 49.5802 41.71 47.7702 46.07C47.6602 45.8 47.5502 45.54 47.4202 45.28V45.29ZM70.5202 53.87C70.4402 53.87 70.3502 53.86 70.2602 53.85C70.3502 53.85 70.4302 53.87 70.5202 53.87ZM52.0902 45.5C53.2202 45.5 54.3102 45.58 55.4602 46.01C56.7102 46.49 57.9402 47.01 59.2102 47.45C59.4202 47.52 59.5302 47.22 59.3302 47.13C57.5602 46.31 55.7602 45.22 53.8902 44.84C58.0902 43.87 61.7402 46.86 64.9502 50.2C66.2102 51.51 67.8302 53.29 69.7102 53.75C68.6602 53.54 67.2002 53.09 66.3802 52.94C65.2302 52.76 64.1102 52.48 63.0102 52.09C60.5702 51.12 58.4102 49.73 56.1702 48.35C54.3402 47.23 52.7202 46.49 50.8602 46.24C51.2802 45.95 51.7002 45.71 52.1102 45.5H52.0902ZM33.0402 41.99C36.3302 44.62 36.2902 49.32 37.7302 52.95C34.3802 50.14 31.9402 46.39 30.3702 42.22C29.2502 39.24 28.0502 36.22 27.4102 33.1C27.1302 31.75 25.4502 26.48 28.2102 28.93C35.2002 35.12 37.8702 44.38 39.1402 53.37C38.3102 51.53 37.6902 49.64 37.0202 47.62C36.2202 45.21 35.2602 43.24 33.2102 41.7C33.0402 41.57 32.8602 41.83 33.0302 41.97L33.0402 41.99ZM55.0902 56.42C57.5102 57.48 62.8402 60.66 64.3102 60.46C59.1802 61.15 53.3502 61.84 48.5302 59.2C47.0002 58.36 45.5202 57.46 43.9602 56.85C47.1202 57.46 50.2002 58.27 53.3502 59.03C53.5702 59.08 53.6502 58.7 53.4302 58.64C49.9902 57.63 46.4002 55.97 42.7902 56.23C42.6802 56.23 42.6402 56.32 42.6402 56.41C42.3102 56.33 41.9702 56.26 41.6302 56.21C46.1202 54.06 50.3302 54.34 55.0802 56.42H55.0902ZM19.2002 48.16C24.2602 53.77 29.6502 59.6 31.6302 67.05C26.1602 61.37 20.5802 56.24 19.2002 48.16ZM32.2202 67.66C32.2202 67.66 32.2902 67.64 32.3202 67.62C32.3002 67.65 32.2902 67.68 32.2702 67.71C32.2502 67.69 32.2302 67.67 32.2202 67.65V67.66ZM50.7902 67.57C53.2402 68.54 48.8902 69.24 48.0802 69.38C46.7302 69.62 45.3602 69.86 43.9802 69.92C40.2702 70.09 36.9402 69.62 33.4602 68.48C38.5302 66.61 45.5202 65.47 50.7802 67.57H50.7902ZM17.9202 72.77C19.8802 74.73 21.1502 77.79 22.9902 80.1C21.2102 78.78 19.5302 77.31 18.1602 75.55C16.6202 73.57 15.0302 71.27 14.5502 68.74C14.4202 68.04 14.6102 63.06 14.7602 63.2C20.1002 68.02 23.0002 74.53 25.1402 81.25C22.5002 78.58 20.9102 75.2 18.1602 72.56C18.0102 72.41 17.7602 72.62 17.9102 72.77H17.9202ZM26.8102 82.67C26.8302 82.62 26.8502 82.57 26.8702 82.52C26.9502 82.56 27.0302 82.6 27.1102 82.63C27.0802 82.69 27.0502 82.73 27.0202 82.79C26.9502 82.75 26.8802 82.7 26.8102 82.66V82.67ZM36.6002 80.07C34.3902 79.84 32.0802 80.34 29.8602 80.98C33.7702 77.8 39.5802 77.6 44.4902 76.99C46.1802 76.78 44.0902 77.76 43.3302 78.38C41.8502 79.57 40.3102 80.72 38.5602 81.5C35.1202 83.02 31.8502 83.51 28.3302 82.51C28.4702 82.34 28.6102 82.18 28.7502 82.03C31.3702 81.56 33.8902 80.59 36.6102 80.51C36.8602 80.51 36.8202 80.1 36.5902 80.08L36.6002 80.07ZM16.2302 89.41C17.3202 90.84 17.8902 92.69 18.8902 94.19C15.6202 91.12 12.8502 86.46 12.4702 82.33C17.0602 84.06 18.3302 89.71 19.7902 94.29C18.8702 92.5 17.8102 90.64 16.4902 89.18C16.3402 89.01 16.0902 89.22 16.2202 89.4L16.2302 89.41ZM20.0902 108.5C20.1202 107.6 20.2502 106.68 20.4302 105.58C20.2902 106.55 20.1702 107.52 20.0902 108.5ZM30.9802 94.7C29.3402 94.97 27.6002 95.26 25.9402 95.69C27.0002 94.79 28.0802 93.91 29.2402 93.14C30.6402 92.21 32.1102 91.27 33.6702 90.63C34.2302 90.4 37.9402 89.86 38.1102 89.6C34.9202 94.43 29.4402 97.47 23.6802 97.58C24.0502 97.28 24.4102 96.98 24.7802 96.68C26.9002 96.49 28.9801 95.49 31.0501 95.11C31.3001 95.06 31.2302 94.67 30.9802 94.71V94.7ZM22.0402 98.56C22.0202 98.63 22.0002 98.69 21.9802 98.76C21.9702 98.61 21.9402 98.49 21.8902 98.39C21.9202 98.46 21.9702 98.52 22.0402 98.56Z" fill="#AD8F64"/>
<path d="M68.4199 33.1099C68.7499 32.9899 69.0799 32.8499 69.3899 32.6899C69.0599 32.8199 68.7399 32.9599 68.4199 33.1099Z" fill="#AD8F64"/>
<path d="M79.3104 32.53C82.9804 34.36 85.0404 38.34 87.6404 41.58C90.2304 44.81 94.5904 47.6 98.1604 45.76C92.5404 38.71 86.0204 31.12 77.2804 29.95C79.1004 28.4 81.8204 28.4 84.1504 29.11C86.4804 29.83 88.5904 31.16 90.8504 32.08C96.8704 34.54 103.95 33.88 109.26 30.37C105.42 28.05 101.44 25.8 97.1004 24.89C92.7604 23.98 87.9404 24.6 84.6704 27.52C91.9804 24.55 100.88 25.77 107.36 30.65C100.66 33.79 92.2204 32.91 86.0704 28.44C89.0204 28.46 91.9604 28.47 94.9104 28.49C88.3304 27.46 81.5804 27.88 75.2504 29.71C83.3004 25.86 89.7304 18.75 92.8404 10.24C93.0704 9.62 93.2704 8.9 92.9504 8.31C92.5504 7.56 91.5504 7.42999 90.7304 7.50999C86.4804 7.92999 83.1504 11.35 81.0504 15.1C78.9604 18.85 77.7204 23.07 75.5104 26.75C74.0304 29.21 71.9204 31.47 69.4004 32.7C72.6804 31.39 76.1604 30.96 79.3204 32.54L79.3104 32.53ZM84.8504 16.55C81.4104 19.59 79.4404 23.93 76.6104 27.53C76.4604 27.61 76.3104 27.69 76.1604 27.76C77.9204 23.8 79.0004 19.53 81.3204 15.83C82.8804 13.35 84.6704 11.2 87.3204 9.91999C87.7604 9.70999 92.6704 7.93 92.3204 8.81C91.1004 11.86 89.0604 14.91 87.4104 17.75C84.8804 22.1 81.7004 24.73 77.5704 27.01C80.3004 23.8 82.6204 20.19 85.1204 16.8C85.2504 16.63 85.0004 16.4 84.8504 16.54V16.55ZM76.3904 30.22C76.3904 30.22 76.4404 30.21 76.4704 30.2C76.4704 30.2 76.4704 30.22 76.4704 30.23C76.4404 30.23 76.4204 30.23 76.4004 30.23L76.3904 30.22ZM87.2704 34.98C89.5304 37.09 91.4204 39.53 93.5604 41.76C94.6504 42.88 95.7504 44.01 96.9704 44.98C98.0404 45.83 95.2004 45.69 94.6704 45.56C92.3304 44.98 90.4104 43.29 88.7704 41.54C86.4704 39.09 82.5404 32.96 78.3704 30.87C81.6504 31.59 84.6004 32.49 87.2604 34.98H87.2704Z" fill="#AD8F64"/>
<path d="M69.9199 38.08C70.6699 38.4 71.3999 38.74 72.1299 39.11C71.4299 38.7 70.6999 38.35 69.9199 38.08Z" fill="#AD8F64"/>
<path d="M88.7103 38.58C86.9903 36.67 85.3903 34.18 83.0903 32.95C82.9103 32.85 82.7303 33.13 82.8703 33.27C84.7003 35.15 86.5103 37.01 88.3003 38.93C88.5403 39.19 88.9503 38.85 88.7103 38.58Z" fill="#AD8F64"/>
<path d="M41.7606 68.44C39.4006 68.31 36.9606 67.99 34.6106 68.17C34.4406 68.18 34.4706 68.44 34.6206 68.46C36.9506 68.84 39.3806 68.73 41.7206 68.8C41.9506 68.8 41.9906 68.45 41.7506 68.43L41.7606 68.44Z" fill="#AD8F64"/>
<path d="M184.9 82.9199C199.87 126.37 176.13 175.62 132.1 189.73C100.47 200.49 63.4703 190.07 41.7503 164.79C40.9703 163.85 39.8403 162.57 39.1103 161.61C38.3803 160.63 37.3103 159.3 36.6303 158.31C35.5303 156.73 34.1903 154.8 33.2203 153.14C24.1903 138.44 19.8103 120.92 20.9703 103.68C22.8303 70.2199 46.4703 39.4899 78.3903 29.2299C122.11 14.2199 170.7 39.1399 184.9 82.9199ZM184.75 82.97C175.17 53.91 149.3 32.34 119.17 27.56C57.1503 17.58 6.7703 76.26 26.1203 136.06C46.3103 196.34 122.01 212.25 165.77 166.73C186.91 144.74 194.61 111.95 184.75 82.97Z" fill="#AD8F64"/>
<path d="M56.6404 101.4C52.2804 88.37 58.6004 76.54 71.5204 72.22C83.8104 68.11 95.4604 73.15 99.7604 86.01C104.14 99.1 97.8404 110.79 84.9204 115.11C72.6304 119.22 60.9604 114.32 56.6404 101.4ZM85.4904 114.16C94.0504 111.3 99.5504 102.37 95.0504 88.93C90.5704 75.55 80.4204 70.01 70.8304 73.22C62.2704 76.08 56.8304 84.99 61.3104 98.37C65.8104 111.81 75.9004 117.37 85.4904 114.16Z" fill="#AD8F64"/>
</svg>
